<svg xmlns="http://www.w3.org/2000/svg" viewBox="0 0 1200 630" width="1200" height="630">
  <defs>
    <linearGradient id="bg" x1="0%" y1="0%" x2="100%" y2="100%">
      <stop offset="0%" style="stop-color:#003d7a"/>
      <stop offset="50%" style="stop-color:#0054A6"/>
      <stop offset="100%" style="stop-color:#00A3E0"/>
    </linearGradient>
    <linearGradient id="accent" x1="0%" y1="0%" x2="100%" y2="0%">
      <stop offset="0%" style="stop-color:#00A3E0"/>
      <stop offset="100%" style="stop-color:#4da6ff"/>
    </linearGradient>
    <linearGradient id="iconbg" x1="0%" y1="0%" x2="100%" y2="100%">
      <stop offset="0%" style="stop-color:rgba(255,255,255,0.15)"/>
      <stop offset="100%" style="stop-color:rgba(255,255,255,0.05)"/>
    </linearGradient>
  </defs>
  <rect width="1200" height="630" fill="url(#bg)"/>
  <!-- Decorative circles -->
  <circle cx="1050" cy="100" r="200" fill="white" opacity="0.05"/>
  <circle cx="150" cy="530" r="150" fill="white" opacity="0.05"/>
  <!-- Logo icon (fridge + wrench) -->
  <g transform="translate(100, 180)">
    <rect width="160" height="160" rx="30" fill="url(#iconbg)"/>
    <g transform="translate(20, 15) scale(1.3)" fill="none">
      <rect x="10" y="5" width="45" height="78" rx="6" stroke="white" stroke-width="5"/>
      <line x1="10" y1="30" x2="55" y2="30" stroke="white" stroke-width="4"/>
      <rect x="46" y="13" width="4" height="9" rx="2" fill="white"/>
      <rect x="46" y="38" width="4" height="16" rx="2" fill="white"/>
      <g opacity="0.5"><line x1="32" y1="13" x2="32" y2="24" stroke="white" stroke-width="2.5" stroke-linecap="round"/><line x1="26" y1="18.5" x2="38" y2="18.5" stroke="white" stroke-width="2.5" stroke-linecap="round"/></g>
      <line x1="56" y1="90" x2="80" y2="28" stroke="white" stroke-width="7" stroke-linecap="round"/>
      <circle cx="83" cy="22" r="10" stroke="white" stroke-width="5"/>
    </g>
  </g>
  <!-- Text -->
  <text x="310" y="260" font-family="Arial, Helvetica, sans-serif" font-size="72" font-weight="900" fill="white">ServiTec</text>
  <text x="710" y="260" font-family="Arial, Helvetica, sans-serif" font-size="72" font-weight="900" fill="#38bdf8"> Quindío</text>
  <text x="310" y="330" font-family="Arial, Helvetica, sans-serif" font-size="32" fill="white" opacity="0.9">Reparación de Electrodomésticos</text>
  <text x="310" y="375" font-family="Arial, Helvetica, sans-serif" font-size="28" fill="white" opacity="0.75">Armenia y Todo el Quindío</text>
  <!-- Divider line -->
  <rect x="310" y="400" width="120" height="4" rx="2" fill="url(#accent)"/>
  <!-- Service icons row -->
  <text x="310" y="460" font-family="Arial, Helvetica, sans-serif" font-size="22" fill="white" opacity="0.8">Neveras · Lavadoras · Calentadores · Estufas · Aires Acondicionados</text>
  <!-- WhatsApp badge -->
  <rect x="310" y="490" width="280" height="50" rx="25" fill="#25D366"/>
  <text x="350" y="522" font-family="Arial, Helvetica, sans-serif" font-size="22" font-weight="700" fill="white">WhatsApp: 318 838 3917</text>
  <!-- Bottom border accent -->
  <rect x="0" y="620" width="1200" height="10" fill="url(#accent)"/>
</svg>
