<svg xmlns="http://www.w3.org/2000/svg" viewBox="0 0 1200 630" width="1200" height="630">
  <defs>
    <linearGradient id="bg" x1="0%" y1="0%" x2="100%" y2="100%">
      <stop offset="0%" style="stop-color:#003d7a"/>
      <stop offset="50%" style="stop-color:#0054A6"/>
      <stop offset="100%" style="stop-color:#00A3E0"/>
    </linearGradient>
    <linearGradient id="accent" x1="0%" y1="0%" x2="100%" y2="0%">
      <stop offset="0%" style="stop-color:#00A3E0"/>
      <stop offset="100%" style="stop-color:#4da6ff"/>
    </linearGradient>
  </defs>
  <rect width="1200" height="630" fill="url(#bg)"/>
  <!-- Decorative circles -->
  <circle cx="1050" cy="100" r="200" fill="white" opacity="0.05"/>
  <circle cx="150" cy="530" r="150" fill="white" opacity="0.05"/>
  <!-- Logo gear -->
  <g transform="translate(100, 200)" fill="white" opacity="0.9">
    <g transform="scale(1.5)">
      <path d="M50 15a3 3 0 0 1 3 3v5.2a22 22 0 0 1 8.5 3.5l3.7-3.7a3 3 0 0 1 4.2 4.2l-3.7 3.7A22 22 0 0 1 69.2 40H74.5a3 3 0 1 1 0 6H69.2a22 22 0 0 1-3.5 8.5l3.7 3.7a3 3 0 0 1-4.2 4.2l-3.7-3.7a22 22 0 0 1-8.5 3.5V67.5a3 3 0 1 1-6 0V62.2a22 22 0 0 1-8.5-3.5l-3.7 3.7a3 3 0 0 1-4.2-4.2l3.7-3.7A22 22 0 0 1 30.8 46H25.5a3 3 0 1 1 0-6H30.8a22 22 0 0 1 3.5-8.5l-3.7-3.7a3 3 0 0 1 4.2-4.2l3.7 3.7A22 22 0 0 1 47 23.8V18a3 3 0 0 1 3-3zm0 20a8 8 0 1 0 0 16 8 8 0 0 0 0-16z"/>
      <path d="M28 62l-12 22a4 4 0 0 0 3.5 5.8h5a4 4 0 0 0 3.5-2.1L40 68" stroke="white" stroke-width="5" fill="none" stroke-linecap="round"/>
    </g>
  </g>
  <!-- Text -->
  <text x="320" y="260" font-family="Arial, Helvetica, sans-serif" font-size="72" font-weight="900" fill="white">ServiTec</text>
  <text x="720" y="260" font-family="Arial, Helvetica, sans-serif" font-size="72" font-weight="900" fill="#38bdf8"> Quindío</text>
  <text x="320" y="330" font-family="Arial, Helvetica, sans-serif" font-size="32" fill="white" opacity="0.9">Reparación de Electrodomésticos</text>
  <text x="320" y="375" font-family="Arial, Helvetica, sans-serif" font-size="28" fill="white" opacity="0.75">Armenia y Todo el Quindío</text>
  <!-- Divider line -->
  <rect x="320" y="400" width="120" height="4" rx="2" fill="url(#accent)"/>
  <!-- Service icons row -->
  <text x="320" y="460" font-family="Arial, Helvetica, sans-serif" font-size="22" fill="white" opacity="0.8">Neveras · Lavadoras · Calentadores · Estufas · Aires Acondicionados</text>
  <!-- WhatsApp badge -->
  <rect x="320" y="490" width="280" height="50" rx="25" fill="#25D366"/>
  <text x="360" y="522" font-family="Arial, Helvetica, sans-serif" font-size="22" font-weight="700" fill="white">WhatsApp: 318 838 3917</text>
  <!-- Bottom border accent -->
  <rect x="0" y="620" width="1200" height="10" fill="url(#accent)"/>
</svg>
