<svg xmlns="http://www.w3.org/2000/svg" viewBox="0 0 1200 630" width="1200" height="630">
  <defs>
    <linearGradient id="bg" x1="0%" y1="0%" x2="100%" y2="100%">
      <stop offset="0%" style="stop-color:#003d7a"/>
      <stop offset="50%" style="stop-color:#0054A6"/>
      <stop offset="100%" style="stop-color:#00A3E0"/>
    </linearGradient>
    <linearGradient id="accent" x1="0%" y1="0%" x2="100%" y2="0%">
      <stop offset="0%" style="stop-color:#00A3E0"/>
      <stop offset="100%" style="stop-color:#4da6ff"/>
    </linearGradient>
    <linearGradient id="iconbg" x1="0%" y1="0%" x2="100%" y2="100%">
      <stop offset="0%" style="stop-color:#0054A6"/>
      <stop offset="100%" style="stop-color:#00A3E0"/>
    </linearGradient>
  </defs>
  <rect width="1200" height="630" fill="url(#bg)"/>
  <circle cx="1050" cy="100" r="200" fill="white" opacity="0.05"/>
  <circle cx="150" cy="530" r="150" fill="white" opacity="0.05"/>
  <!-- Fridge + EKG logo -->
  <g transform="translate(100, 170)">
    <rect x="-10" y="-10" width="180" height="180" rx="32" fill="url(#iconbg)" opacity="0.5"/>
    <g transform="translate(10, 5) scale(1.6)" fill="none">
      <rect x="26" y="8" width="38" height="68" rx="5" stroke="white" stroke-width="3" fill="rgba(255,255,255,0.06)"/>
      <line x1="26" y1="28" x2="64" y2="28" stroke="white" stroke-width="2.5"/>
      <line x1="56" y1="16" x2="56" y2="22" stroke="white" stroke-width="3" stroke-linecap="round"/>
      <line x1="56" y1="36" x2="56" y2="50" stroke="white" stroke-width="3" stroke-linecap="round"/>
      <polyline points="6,52 24,52 32,32 42,68 50,38 58,60 64,46 76,52 94,52" stroke="white" stroke-width="2.5" stroke-linecap="round" stroke-linejoin="round" opacity="0.85"/>
      <line x1="32" y1="76" x2="32" y2="84" stroke="white" stroke-width="2.5" stroke-linecap="round"/>
      <line x1="58" y1="76" x2="58" y2="84" stroke="white" stroke-width="2.5" stroke-linecap="round"/>
    </g>
  </g>
  <!-- Text -->
  <text x="320" y="260" font-family="Arial, Helvetica, sans-serif" font-size="72" font-weight="900" fill="white">ServiTec</text>
  <text x="720" y="260" font-family="Arial, Helvetica, sans-serif" font-size="72" font-weight="900" fill="#38bdf8"> Quindío</text>
  <text x="320" y="330" font-family="Arial, Helvetica, sans-serif" font-size="32" fill="white" opacity="0.9">Reparación de Electrodomésticos</text>
  <text x="320" y="375" font-family="Arial, Helvetica, sans-serif" font-size="28" fill="white" opacity="0.75">Armenia y Todo el Quindío</text>
  <rect x="320" y="400" width="120" height="4" rx="2" fill="url(#accent)"/>
  <text x="320" y="460" font-family="Arial, Helvetica, sans-serif" font-size="22" fill="white" opacity="0.8">Neveras · Lavadoras · Calentadores · Estufas · Aires Acondicionados</text>
  <rect x="320" y="490" width="280" height="50" rx="25" fill="#25D366"/>
  <text x="360" y="522" font-family="Arial, Helvetica, sans-serif" font-size="22" font-weight="700" fill="white">WhatsApp: 318 838 3917</text>
  <rect x="0" y="620" width="1200" height="10" fill="url(#accent)"/>
</svg>
