<svg xmlns="http://www.w3.org/2000/svg" viewBox="0 0 1200 630" width="1200" height="630">
  <defs>
    <linearGradient id="bg" x1="0%" y1="0%" x2="100%" y2="100%">
      <stop offset="0%" style="stop-color:#003d7a"/>
      <stop offset="50%" style="stop-color:#0054A6"/>
      <stop offset="100%" style="stop-color:#00A3E0"/>
    </linearGradient>
    <linearGradient id="accent" x1="0%" y1="0%" x2="100%" y2="0%">
      <stop offset="0%" style="stop-color:#00A3E0"/>
      <stop offset="100%" style="stop-color:#4da6ff"/>
    </linearGradient>
    <linearGradient id="iconbg" x1="0%" y1="0%" x2="100%" y2="100%">
      <stop offset="0%" style="stop-color:#0054A6"/>
      <stop offset="100%" style="stop-color:#00A3E0"/>
    </linearGradient>
  </defs>
  <rect width="1200" height="630" fill="url(#bg)"/>
  <circle cx="1050" cy="100" r="200" fill="white" opacity="0.05"/>
  <circle cx="150" cy="530" r="150" fill="white" opacity="0.05"/>
  <!-- Power button logo -->
  <g transform="translate(100, 170)">
    <rect x="-10" y="-10" width="180" height="180" rx="32" fill="url(#iconbg)" opacity="0.5"/>
    <g transform="translate(10, 5) scale(1.6)" fill="none">
      <path d="M40 16 A38 38 0 1 0 60 16" stroke="white" stroke-width="4" stroke-linecap="round" fill="rgba(255,255,255,0.06)"/>
      <line x1="50" y1="2" x2="50" y2="36" stroke="white" stroke-width="5.5" stroke-linecap="round"/>
      <path d="M50 36 L72 53 L67 53 L67 78 L33 78 L33 53 L28 53 Z" fill="white" opacity="0.95"/>
      <path d="M55 40 L45 58 L51 58 L47 75 L60 54 L54 54 Z" fill="#0054A6"/>
    </g>
  </g>
  <!-- Text -->
  <text x="320" y="260" font-family="Arial, Helvetica, sans-serif" font-size="72" font-weight="900" fill="white">ServiTec</text>
  <text x="720" y="260" font-family="Arial, Helvetica, sans-serif" font-size="72" font-weight="900" fill="#38bdf8"> Quindío</text>
  <text x="320" y="330" font-family="Arial, Helvetica, sans-serif" font-size="32" fill="white" opacity="0.9">Reparación de Electrodomésticos</text>
  <text x="320" y="375" font-family="Arial, Helvetica, sans-serif" font-size="28" fill="white" opacity="0.75">Armenia y Todo el Quindío</text>
  <rect x="320" y="400" width="120" height="4" rx="2" fill="url(#accent)"/>
  <text x="320" y="460" font-family="Arial, Helvetica, sans-serif" font-size="22" fill="white" opacity="0.8">Neveras · Lavadoras · Calentadores · Estufas · Aires Acondicionados</text>
  <rect x="320" y="490" width="280" height="50" rx="25" fill="#25D366"/>
  <text x="360" y="522" font-family="Arial, Helvetica, sans-serif" font-size="22" font-weight="700" fill="white">WhatsApp: 318 838 3917</text>
  <rect x="0" y="620" width="1200" height="10" fill="url(#accent)"/>
</svg>
